D:\school\WTK\thesis\model\3dpredictsim\Results\batch_windlass\Pog_s1_tmt_aCst_d00_k800_WL20_ig24_act_TTC_GRF.mot
nRows=17
nColumns=19

name D:\school\WTK\thesis\model\3dpredictsim\Results\batch_windlass\Pog_s1_tmt_aCst_d00_k800_WL20_ig24_act_TTC_GRF.mot
datacolumns 19
datarows 17
range 0.0000000000 0.1976872422
endheader
time 	ground_force_vx	ground_force_vy	ground_force_vz	ground_force_px	ground_force_py	ground_force_pz	1_ground_force_vx	1_ground_force_vy	1_ground_force_vz	1_ground_force_px	1_ground_force_py	1_ground_force_pz	ground_torque_x	ground_torque_y	ground_torque_z	1_ground_torque_x	1_ground_torque_y	1_ground_torque_z
        0.0000000000	      -37.0749730734	       30.3251518766	        4.2968525030	        0.1911250952	        0.0000000000	        0.0739782570	       86.5983606418	      340.8334315635	       -1.9897543416	       -0.3878661327	        0.0000000000	       -0.0328762208	        0.0000000000	        0.0000000000	        0.0000000000	        0.0000000000	        0.0000000000	        0.0000000000	
        0.0123554526	     -151.4793702158	      147.8673556549	       18.1466782359	        0.2033997873	        0.0000000000	        0.0734590252	       53.8609228847	      240.5452060068	      -10.4879663032	       -0.3754096162	        0.0000000000	       -0.0271606861	        0.0000000000	        0.0000000000	        0.0000000000	        0.0000000000	        0.0000000000	        0.0000000000	
        0.0247109053	     -101.7975640476	      474.3744706265	      -10.6202714883	        0.2156846742	        0.0000000000	        0.0716171882	       41.9071592077	      203.3742013434	      -15.4113284043	       -0.3747824768	        0.0000000000	       -0.0269003689	        0.0000000000	        0.0000000000	        0.0000000000	        0.0000000000	        0.0000000000	        0.0000000000	
        0.0370663579	     -180.6172226686	      866.1882378519	      -22.3614821176	        0.2307193383	        0.0000000000	        0.0682100868	       32.4305001455	      148.1836481663	      -23.1178245327	       -0.3746961744	        0.0000000000	       -0.0275700189	        0.0000000000	        0.0000000000	        0.0000000000	        0.0000000000	        0.0000000000	        0.0000000000	
        0.0494218106	     -204.3967290273	      992.8717694305	      -24.7487756084	        0.2364705645	        0.0000000000	        0.0661746449	       17.0328571511	       79.2049414685	      -21.8953136256	       -0.3746742974	        0.0000000000	       -0.0282376402	        0.0000000000	        0.0000000000	        0.0000000000	        0.0000000000	        0.0000000000	        0.0000000000	
        0.0617772632	     -189.7303810495	      946.9707239182	      -27.1406993350	        0.2399015182	        0.0000000000	        0.0648989215	       -5.3853140455	       15.0535328879	       -4.0616973810	       -0.3789943163	        0.0000000000	       -0.0271539096	        0.0000000000	        0.0000000000	        0.0000000000	        0.0000000000	        0.0000000000	        0.0000000000	
        0.0741327158	     -162.8839507207	      871.1574732323	      -26.1392158534	        0.2426347519	        0.0000000000	        0.0641985638	        0.8401867548	       -0.7132629156	       -0.0583094207	        0.0000000000	        0.0000000000	        0.0000000000	        0.0000000000	        0.0000000000	        0.0000000000	        0.0000000000	        0.0000000000	        0.0000000000	
        0.0864881685	     -141.1826877222	      803.6849365421	      -23.8473819010	        0.2452411850	        0.0000000000	        0.0637504279	       -3.9933417897	        2.8376660403	        0.4096480897	        0.0000000000	        0.0000000000	        0.0000000000	        0.0000000000	        0.0000000000	        0.0000000000	        0.0000000000	        0.0000000000	        0.0000000000	
        0.0988436211	     -124.7014480088	      758.8926137104	      -21.1020740587	        0.2473915880	        0.0000000000	        0.0635352815	       -1.9520352691	        1.2199882018	        0.2050206165	        0.0000000000	        0.0000000000	        0.0000000000	        0.0000000000	        0.0000000000	        0.0000000000	        0.0000000000	        0.0000000000	        0.0000000000	
        0.1111990737	     -105.4465232820	      725.4319192214	      -20.9648248666	        0.2492580463	        0.0000000000	        0.0634442752	       -0.3942327904	        0.2262974038	        0.0372166522	        0.0000000000	        0.0000000000	        0.0000000000	        0.0000000000	        0.0000000000	        0.0000000000	        0.0000000000	        0.0000000000	        0.0000000000	
        0.1235545264	      -88.6334262246	      687.4695990266	      -19.9516851442	        0.2516241552	        0.0000000000	        0.0633298194	       -0.1568756723	        0.0853623849	        0.0125347571	        0.0000000000	        0.0000000000	        0.0000000000	        0.0000000000	        0.0000000000	        0.0000000000	        0.0000000000	        0.0000000000	        0.0000000000	
        0.1359099790	      -74.6910673136	      657.0418904675	      -20.7594008358	        0.2553787592	        0.0000000000	        0.0630071787	       -0.1698115523	        0.0898249393	        0.0109713180	        0.0000000000	        0.0000000000	        0.0000000000	        0.0000000000	        0.0000000000	        0.0000000000	        0.0000000000	        0.0000000000	        0.0000000000	
        0.1482654317	      -65.0305169546	      635.0614305507	      -21.8711611051	        0.2603495223	        0.0000000000	        0.0624360348	       -0.0935279076	        0.0484448799	        0.0049292721	        0.0000000000	        0.0000000000	        0.0000000000	        0.0000000000	        0.0000000000	        0.0000000000	        0.0000000000	        0.0000000000	        0.0000000000	
        0.1606208843	      -57.6004425635	      618.8371965796	      -22.1335996719	        0.2658661399	        0.0000000000	        0.0617200869	       -0.0459020584	        0.0228843273	        0.0023049369	        0.0000000000	        0.0000000000	        0.0000000000	        0.0000000000	        0.0000000000	        0.0000000000	        0.0000000000	        0.0000000000	        0.0000000000	
        0.1729763369	      -51.0861169091	      606.7061942618	      -21.9942967630	        0.2716704870	        0.0000000000	        0.0608931829	       -0.0273487097	        0.0130276515	        0.0014083302	        0.0000000000	        0.0000000000	        0.0000000000	        0.0000000000	        0.0000000000	        0.0000000000	        0.0000000000	        0.0000000000	        0.0000000000	
        0.1853317896	      -45.5534820021	      597.2196520438	      -21.3502969369	        0.2775504274	        0.0000000000	        0.0599925126	       -0.0210251789	        0.0095721871	        0.0011272525	        0.0000000000	        0.0000000000	        0.0000000000	        0.0000000000	        0.0000000000	        0.0000000000	        0.0000000000	        0.0000000000	        0.0000000000	
        0.1976872422	      -40.6956791374	      588.7363517660	      -20.5626237651	        0.2832193834	        0.0000000000	        0.0590809901	       -0.0213081270	        0.0093237575	        0.0011371036	        0.0000000000	        0.0000000000	        0.0000000000	        0.0000000000	        0.0000000000	        0.0000000000	        0.0000000000	        0.0000000000	        0.0000000000	
